<svg width="923" height="931" viewBox="0 0 923 931" fill="none" xmlns="http://www.w3.org/2000/svg">
<path d="M374.128 231.668C421.967 239.624 460.039 228.868 509.696 229.728C559.19 230.72 620.576 243.373 686.143 282.525C751.727 321.365 821.184 386.659 820.644 445.691C820.267 504.591 749.422 557.316 703.038 627.192C656.654 697.069 634.567 784.231 582.536 805.124C530.505 826.017 448.675 780.821 375.767 747.624C303.166 714.474 239.776 693.68 205.428 649.331C171.081 604.981 165.922 537.255 166.515 479.955C167.108 422.656 173.453 375.784 181.848 325.769C190.08 275.887 200.361 222.863 234.214 209.906C268.23 196.818 326.144 223.533 374.128 231.668Z" fill="#FF6B6B" fill-opacity="0.85"/>
</svg>
