<svg width="594" height="567" viewBox="0 0 594 567" fill="none" xmlns="http://www.w3.org/2000/svg">
<path d="M95.3566 146.961C119.785 93.246 122.28 18.78 152.618 3.80804C182.956 -11.2953 241.137 32.964 288.023 60.938C334.909 88.912 370.5 100.469 414.497 117.937C458.493 135.273 510.764 158.387 548.325 201.727C585.755 245.199 608.476 308.764 583.129 349.871C557.913 390.847 484.629 409.365 432.883 448.371C381.138 487.246 350.931 546.74 308.511 561.975C266.09 577.209 211.455 548.185 161.023 518.766C110.591 489.479 64.2307 459.929 34.418 417.902C4.47399 375.875 -8.79068 321.372 7.75731 277.638C24.3053 233.904 70.7973 200.677 95.3566 146.961Z" fill="#FF6B6B"/>
</svg>
