<svg width="627" height="598" viewBox="0 0 627 598" fill="none" xmlns="http://www.w3.org/2000/svg">
<path d="M100.493 155.259C126.285 98.5441 128.92 19.92 160.952 4.11205C192.984 -11.8346 254.413 34.896 303.917 64.4321C353.421 93.9681 391 106.171 437.453 124.613C483.907 142.917 539.096 167.323 578.755 213.083C618.275 258.981 642.264 326.096 615.501 369.499C588.877 412.763 511.501 432.315 456.867 473.499C402.232 514.544 370.339 577.36 325.549 593.445C280.76 609.531 223.075 578.885 169.827 547.824C116.579 516.901 67.6294 485.701 36.152 441.328C4.53602 396.955 -9.46932 339.408 8.00268 293.232C25.4747 247.056 74.5627 211.973 100.493 155.259Z" fill="#FF6B6B" fill-opacity="0.87"/>
</svg>
