<svg width="183" height="116" viewBox="0 0 183 116" fill="none" xmlns="http://www.w3.org/2000/svg">
<g filter="url(#filter0_dd)">
<g clip-path="url(#clip0)">
<path d="M79.0614 16.9132C85.7649 20.5647 90.2157 28.3582 90.8334 36.0608C91.4692 43.7453 88.2719 51.3208 88.1447 60.059C88.0175 68.8153 90.9605 78.7343 87.854 84.7657C84.7475 90.797 75.5915 92.9588 67.6709 91.8507C59.7502 90.7607 53.083 86.4007 46.3977 83.6938C39.7305 80.987 33.0452 79.9333 28.8668 76.1365C24.7067 72.3397 23.0535 65.7997 22.5812 59.3687C22.0907 52.9377 22.7629 46.6338 25.3062 41.2202C27.8677 35.8247 32.3004 31.3375 37.4779 26.9775C42.6554 22.6175 48.5777 18.3847 56.0079 16.0412C63.438 13.6977 72.376 13.2435 79.0614 16.9132Z" fill="#FF6B6B"/>
<path d="M97.6293 17.6937C104.333 21.3452 108.784 29.1387 109.401 36.8413C110.037 44.5258 106.84 52.1013 106.713 60.8395C106.585 69.5958 109.528 79.5148 106.422 85.5462C103.315 91.5775 94.1595 93.7393 86.2388 92.6312C78.3181 91.5412 71.6509 87.1812 64.9656 84.4743C58.2985 81.7675 51.6131 80.7138 47.4348 76.917C43.2746 73.1202 41.6215 66.5802 41.1491 60.1492C40.6586 53.7182 41.3308 47.4143 43.8741 42.0007C46.4356 36.6052 50.8683 32.118 56.0458 27.758C61.2233 23.398 67.1456 19.1652 74.5758 16.8217C82.006 14.4782 90.944 14.024 97.6293 17.6937Z" fill="#FF9492"/>
</g>
</g>
<rect x="54" y="67" width="97" height="10" fill="#FFE66D"/>
<path d="M69.752 77.512C65.272 77.512 61.2187 76.5307 57.592 74.568C54.008 72.5627 51.192 69.832 49.144 66.376C47.096 62.8773 46.072 58.952 46.072 54.6C46.072 50.248 47.096 46.344 49.144 42.888C51.192 39.3893 54.0293 36.6587 57.656 34.696C61.2827 32.6907 65.336 31.688 69.816 31.688C73.3147 31.688 76.5147 32.2853 79.416 33.48C82.3173 34.632 84.792 36.36 86.84 38.664L82.68 42.696C79.3093 39.1547 75.1067 37.384 70.072 37.384C66.744 37.384 63.736 38.1307 61.048 39.624C58.36 41.1173 56.248 43.1867 54.712 45.832C53.2187 48.4347 52.472 51.3573 52.472 54.6C52.472 57.8427 53.2187 60.7867 54.712 63.432C56.248 66.0347 58.36 68.0827 61.048 69.576C63.736 71.0693 66.744 71.816 70.072 71.816C75.064 71.816 79.2667 70.024 82.68 66.44L86.84 70.472C84.792 72.776 82.296 74.5253 79.352 75.72C76.4507 76.9147 73.2507 77.512 69.752 77.512ZM113.186 42.76C117.495 42.76 120.909 44.0187 123.426 46.536C125.986 49.0107 127.266 52.6587 127.266 57.48V77H121.122V58.184C121.122 54.8987 120.333 52.424 118.754 50.76C117.175 49.096 114.914 48.264 111.97 48.264C108.642 48.264 106.018 49.2453 104.098 51.208C102.178 53.128 101.218 55.9013 101.218 59.528V77H95.074V29.512H101.218V47.88C102.498 46.2587 104.162 45 106.21 44.104C108.301 43.208 110.626 42.76 113.186 42.76Z" fill="#10373F"/>
<defs>
<filter id="filter0_dd" x="-8" y="-8" width="125" height="125" filterUnits="userSpaceOnUse" color-interpolation-filters="sRGB">
<feFlood flood-opacity="0" result="BackgroundImageFix"/>
<feColorMatrix in="SourceAlpha" type="matrix" values="0 0 0 0 0 0 0 0 0 0 0 0 0 0 0 0 0 0 127 0"/>
<feOffset dx="4" dy="4"/>
<feGaussianBlur stdDeviation="2"/>
<feColorMatrix type="matrix" values="0 0 0 0 0 0 0 0 0 0 0 0 0 0 0 0 0 0 0.25 0"/>
<feBlend mode="normal" in2="BackgroundImageFix" result="effect1_dropShadow"/>
<feColorMatrix in="SourceAlpha" type="matrix" values="0 0 0 0 0 0 0 0 0 0 0 0 0 0 0 0 0 0 127 0"/>
<feOffset dx="-4" dy="-4"/>
<feGaussianBlur stdDeviation="2"/>
<feColorMatrix type="matrix" values="0 0 0 0 1 0 0 0 0 1 0 0 0 0 1 0 0 0 1 0"/>
<feBlend mode="normal" in2="effect1_dropShadow" result="effect2_dropShadow"/>
<feBlend mode="normal" in="SourceGraphic" in2="effect2_dropShadow" result="shape"/>
</filter>
<clipPath id="clip0">
<rect width="109" height="109" fill="white"/>
</clipPath>
</defs>
</svg>
