<svg width="909" height="848" viewBox="0 0 909 848" fill="none" xmlns="http://www.w3.org/2000/svg">
<path d="M312.397 208.229C363.292 189.77 392.594 149.645 440.617 121.111C488.576 92.7078 555.318 75.7643 619.028 90.5141C682.67 105.07 743.343 151.189 770.579 212.266C797.946 273.406 791.938 349.373 779.694 424.59C767.449 499.806 749.224 574.074 705.97 631.137C662.586 688.138 594.366 727.867 522.035 744.05C449.636 760.04 373.127 752.484 333.29 703.203C293.453 653.921 290.356 563.108 261.295 505.82C232.104 448.468 176.887 424.773 148.376 382.717C119.866 340.661 118.062 280.244 153.31 251.835C188.752 223.358 261.371 226.626 312.397 208.229Z" fill="#FF6B6B"/>
</svg>
