<svg width="1001" height="897" viewBox="0 0 1001 897" fill="none" xmlns="http://www.w3.org/2000/svg">
<path d="M343.888 192.43C399.945 172.098 432.22 127.904 485.112 96.4758C537.936 65.1917 611.447 46.5297 681.619 62.7755C751.716 78.8081 818.542 129.604 848.54 196.876C878.683 264.217 872.066 347.889 858.58 430.734C845.093 513.579 825.02 595.379 777.379 658.23C729.594 721.012 654.455 764.77 574.788 782.595C495.047 800.206 410.778 791.884 366.901 737.605C323.023 683.325 319.612 583.301 287.604 520.203C255.452 457.035 194.634 430.936 163.232 384.614C131.83 338.293 129.844 271.749 168.667 240.458C207.703 209.092 287.687 212.692 343.888 192.43Z" fill="#FF6B6B" fill-opacity="0.81"/>
</svg>
